<svg width="13" height="24" viewBox="0 0 13 24" fill="none" xmlns="http://www.w3.org/2000/svg">
<path fill-rule="evenodd" clip-rule="evenodd" d="M12.3481 0.160382L9.27036 0.155762C5.81299 0.155762 3.57803 2.44423 3.57803 5.98551V8.67382H0.483285C0.216953 8.67382 0 8.88914 0 9.15621V13.0514C0 13.3173 0.216953 13.5338 0.483285 13.5338H3.57803V23.3614C3.57803 23.6272 3.79499 23.8438 4.06255 23.8438H8.09857C8.36613 23.8438 8.58309 23.6272 8.58309 23.3614V13.5338H12.2009C12.4685 13.5338 12.6845 13.3173 12.6845 13.0514L12.6867 9.15621C12.6867 9.02868 12.6348 8.90608 12.5444 8.81459C12.454 8.72433 12.3312 8.67382 12.2022 8.67382H8.58309V6.3949C8.58309 5.2998 8.84479 4.74378 10.2733 4.74378L12.3469 4.74255C12.6145 4.74255 12.8302 4.52599 12.8302 4.26015V0.644321C12.8302 0.376938 12.6145 0.161615 12.3481 0.160382Z" fill="#4267B2"/>
</svg>
